<?xml version="1.0" encoding="UTF-8"?>
<svg xmlns="http://www.w3.org/2000/svg" xmlns:xlink="http://www.w3.org/1999/xlink" width="375pt" height="374.999991pt" viewBox="0 0 375 374.999991" version="1.2">
<defs>
<clipPath id="clip1">
  <path d="M 0 65.15625 L 375 65.15625 L 375 374.90625 L 0 374.90625 Z M 0 65.15625 "/>
</clipPath>
<clipPath id="clip2">
  <path d="M 261.503906 135 L 333.503906 135 L 333.503906 192 L 261.503906 192 Z M 261.503906 135 "/>
</clipPath>
<clipPath id="clip3">
  <path d="M 132.371094 202.148438 L 231.371094 202.148438 L 231.371094 301.148438 L 132.371094 301.148438 Z M 132.371094 202.148438 "/>
</clipPath>
<clipPath id="clip4">
  <path d="M 261.503906 192.484375 L 359.472656 192.484375 L 359.472656 301 L 261.503906 301 Z M 261.503906 192.484375 "/>
</clipPath>
<clipPath id="clip5">
  <path d="M 261.503906 192.484375 L 358 192.484375 L 358 274 L 261.503906 274 Z M 261.503906 192.484375 "/>
</clipPath>
<clipPath id="clip6">
  <path d="M 309 219 L 359.472656 219 L 359.472656 274 L 309 274 Z M 309 219 "/>
</clipPath>
<clipPath id="clip7">
  <path d="M 28 115.503906 L 102 115.503906 L 102 259.503906 L 28 259.503906 Z M 28 115.503906 "/>
</clipPath>
</defs>
<g id="surface1">
<g clip-path="url(#clip1)" clip-rule="nonzero">
<path style=" stroke:none;fill-rule:nonzero;fill:rgb(100%,32.548523%,5.099487%);fill-opacity:1;" d="M 365.054688 65.898438 L 9.945312 65.898438 C 4.476562 65.898438 0 70.375 0 75.84375 L 0 310.519531 C 0 315.988281 4.476562 320.464844 9.945312 320.464844 L 151.195312 320.464844 L 141.246094 351.292969 C 141.246094 351.292969 122.347656 352.78125 110.410156 366.207031 L 110.410156 374.164062 L 263.59375 374.164062 L 263.59375 366.207031 C 252.15625 352.78125 232.757812 351.292969 232.757812 351.292969 L 222.8125 320.464844 L 364.058594 320.464844 C 369.527344 320.464844 374.003906 315.992188 374.003906 310.519531 L 374.003906 75.84375 C 375 70.375 370.523438 65.898438 365.054688 65.898438 Z M 363.0625 306.046875 L 11.9375 306.046875 L 11.9375 80.816406 L 363.5625 80.816406 Z M 363.0625 306.046875 "/>
</g>
<g clip-path="url(#clip2)" clip-rule="nonzero">
<path style=" stroke:none;fill-rule:nonzero;fill:rgb(100%,79.998779%,50.19989%);fill-opacity:1;" d="M 325.246094 185.585938 L 317.664062 178.058594 L 312.609375 183.078125 L 320.191406 190.605469 C 321.589844 191.992188 323.851562 191.992188 325.246094 190.605469 C 326.640625 189.21875 326.644531 186.972656 325.246094 185.585938 Z M 332.398438 143.011719 L 324.8125 135.484375 L 319.757812 140.5 L 327.34375 148.027344 C 328.738281 149.414062 331.003906 149.414062 332.398438 148.027344 C 333.789062 146.640625 333.792969 144.394531 332.398438 143.011719 Z M 270.757812 185.585938 L 278.339844 178.058594 L 283.394531 183.078125 L 275.8125 190.605469 C 274.414062 191.992188 272.152344 191.992188 270.757812 190.605469 C 269.363281 189.21875 269.359375 186.972656 270.757812 185.585938 Z M 263.011719 143.011719 L 270.59375 135.484375 L 275.648438 140.5 L 268.066406 148.027344 C 266.667969 149.414062 264.40625 149.414062 263.011719 148.027344 C 261.617188 146.640625 261.613281 144.394531 263.011719 143.011719 Z M 263.011719 143.011719 "/>
</g>
<path style=" stroke:none;fill-rule:nonzero;fill:rgb(30.198669%,81.568909%,88.238525%);fill-opacity:1;" d="M 331.09375 104.144531 C 331.09375 99.570312 328.355469 97.046875 323.394531 97.046875 C 318.429688 97.046875 314.410156 103.121094 314.410156 107.691406 C 314.410156 110.058594 318.992188 111.238281 321.558594 111.238281 C 326.523438 111.238281 331.09375 108.714844 331.09375 104.144531 Z M 264.363281 104.144531 C 264.363281 99.570312 267.101562 97.046875 272.0625 97.046875 C 277.023438 97.046875 281.046875 103.121094 281.046875 107.691406 C 281.046875 110.058594 276.460938 111.238281 273.894531 111.238281 C 268.933594 111.238281 264.363281 108.714844 264.363281 104.144531 Z M 264.363281 104.144531 "/>
<path style=" stroke:none;fill-rule:nonzero;fill:rgb(25.878906%,25.878906%,25.878906%);fill-opacity:1;" d="M 323.945312 101.777344 C 323.628906 101.777344 323.324219 101.839844 323.03125 101.957031 C 322.738281 102.078125 322.480469 102.25 322.257812 102.472656 C 322.035156 102.691406 321.863281 102.949219 321.742188 103.238281 C 321.621094 103.527344 321.558594 103.828125 321.558594 104.144531 C 321.558594 104.457031 321.621094 104.757812 321.742188 105.050781 C 321.863281 105.339844 322.035156 105.59375 322.257812 105.816406 C 322.480469 106.039062 322.738281 106.210938 323.03125 106.328125 C 323.324219 106.449219 323.628906 106.507812 323.945312 106.507812 C 324.257812 106.507812 324.5625 106.449219 324.855469 106.328125 C 325.148438 106.210938 325.40625 106.039062 325.628906 105.816406 C 325.851562 105.59375 326.023438 105.339844 326.144531 105.050781 C 326.265625 104.757812 326.328125 104.457031 326.328125 104.144531 C 326.328125 103.828125 326.265625 103.527344 326.144531 103.238281 C 326.023438 102.949219 325.851562 102.691406 325.628906 102.472656 C 325.40625 102.25 325.148438 102.078125 324.855469 101.957031 C 324.5625 101.839844 324.257812 101.777344 323.945312 101.777344 Z M 271.511719 101.777344 C 271.195312 101.777344 270.890625 101.839844 270.601562 101.957031 C 270.308594 102.078125 270.050781 102.25 269.828125 102.472656 C 269.605469 102.691406 269.433594 102.949219 269.3125 103.238281 C 269.191406 103.527344 269.128906 103.828125 269.128906 104.144531 C 269.128906 104.457031 269.191406 104.757812 269.3125 105.050781 C 269.433594 105.339844 269.605469 105.59375 269.828125 105.816406 C 270.050781 106.039062 270.308594 106.210938 270.601562 106.328125 C 270.890625 106.449219 271.195312 106.507812 271.511719 106.507812 C 271.828125 106.507812 272.132812 106.449219 272.425781 106.328125 C 272.714844 106.210938 272.972656 106.039062 273.199219 105.816406 C 273.421875 105.59375 273.59375 105.339844 273.714844 105.050781 C 273.835938 104.757812 273.894531 104.457031 273.894531 104.144531 C 273.894531 103.828125 273.835938 103.527344 273.714844 103.238281 C 273.59375 102.949219 273.421875 102.691406 273.199219 102.472656 C 272.972656 102.25 272.714844 102.078125 272.425781 101.957031 C 272.132812 101.839844 271.828125 101.777344 271.511719 101.777344 Z M 271.511719 101.777344 "/>
<path style=" stroke:none;fill-rule:nonzero;fill:rgb(30.198669%,81.568909%,88.238525%);fill-opacity:1;" d="M 328.710938 165.644531 C 328.710938 176.9375 321.039062 189.296875 296.988281 189.296875 C 277.632812 189.296875 266.746094 176.9375 266.746094 165.644531 C 266.746094 153.816406 269.128906 151.910156 269.128906 141.992188 C 269.128906 130.902344 269.128906 125.433594 269.128906 118.335938 C 269.128906 107.042969 276.460938 92.316406 296.988281 92.316406 C 317.519531 92.316406 326.328125 101.757812 326.328125 115.972656 C 326.328125 123.066406 325.761719 128.871094 326.328125 139.625 C 326.769531 148.050781 328.710938 158.546875 328.710938 165.644531 Z M 328.710938 165.644531 "/>
<path style=" stroke:none;fill-rule:nonzero;fill:rgb(96.078491%,96.078491%,96.078491%);fill-opacity:1;" d="M 309.644531 99.414062 C 309.019531 99.414062 308.398438 99.472656 307.785156 99.59375 C 307.171875 99.714844 306.574219 99.894531 305.996094 100.132812 C 305.417969 100.371094 304.867188 100.664062 304.347656 101.007812 C 303.828125 101.351562 303.347656 101.746094 302.902344 102.183594 C 302.460938 102.625 302.066406 103.101562 301.71875 103.617188 C 301.371094 104.132812 301.078125 104.679688 300.835938 105.253906 C 300.597656 105.828125 300.417969 106.417969 300.292969 107.027344 C 300.171875 107.636719 300.109375 108.253906 300.109375 108.875 C 300.109375 109.496094 300.171875 110.109375 300.292969 110.71875 C 300.417969 111.328125 300.597656 111.921875 300.835938 112.496094 C 301.078125 113.070312 301.371094 113.613281 301.71875 114.132812 C 302.066406 114.648438 302.460938 115.125 302.902344 115.566406 C 303.347656 116.003906 303.828125 116.394531 304.347656 116.742188 C 304.867188 117.085938 305.417969 117.378906 305.996094 117.617188 C 306.574219 117.855469 307.171875 118.03125 307.785156 118.15625 C 308.398438 118.277344 309.019531 118.335938 309.644531 118.335938 C 310.269531 118.335938 310.890625 118.277344 311.503906 118.15625 C 312.117188 118.03125 312.714844 117.855469 313.292969 117.617188 C 313.871094 117.378906 314.417969 117.085938 314.941406 116.742188 C 315.460938 116.394531 315.941406 116.003906 316.386719 115.566406 C 316.828125 115.125 317.222656 114.648438 317.570312 114.132812 C 317.917969 113.613281 318.210938 113.070312 318.453125 112.496094 C 318.691406 111.921875 318.871094 111.328125 318.992188 110.71875 C 319.117188 110.109375 319.175781 109.496094 319.175781 108.875 C 319.175781 108.253906 319.117188 107.636719 318.992188 107.027344 C 318.871094 106.417969 318.691406 105.828125 318.453125 105.253906 C 318.210938 104.679688 317.917969 104.132812 317.570312 103.617188 C 317.222656 103.101562 316.828125 102.625 316.386719 102.183594 C 315.941406 101.746094 315.460938 101.351562 314.941406 101.007812 C 314.417969 100.664062 313.871094 100.371094 313.292969 100.132812 C 312.714844 99.894531 312.117188 99.714844 311.503906 99.59375 C 310.890625 99.472656 310.269531 99.414062 309.644531 99.414062 Z M 285.8125 99.414062 C 285.1875 99.414062 284.566406 99.472656 283.953125 99.59375 C 283.339844 99.714844 282.742188 99.894531 282.164062 100.132812 C 281.585938 100.371094 281.035156 100.664062 280.515625 101.007812 C 279.996094 101.351562 279.515625 101.746094 279.070312 102.183594 C 278.628906 102.625 278.234375 103.101562 277.886719 103.617188 C 277.539062 104.132812 277.246094 104.679688 277.003906 105.253906 C 276.765625 105.828125 276.585938 106.417969 276.460938 107.027344 C 276.339844 107.636719 276.277344 108.253906 276.277344 108.875 C 276.277344 109.496094 276.339844 110.109375 276.460938 110.71875 C 276.585938 111.328125 276.765625 111.921875 277.003906 112.496094 C 277.246094 113.070312 277.539062 113.613281 277.886719 114.132812 C 278.234375 114.648438 278.628906 115.125 279.070312 115.566406 C 279.515625 116.003906 279.996094 116.394531 280.515625 116.742188 C 281.035156 117.085938 281.585938 117.378906 282.164062 117.617188 C 282.742188 117.855469 283.339844 118.03125 283.953125 118.15625 C 284.566406 118.277344 285.1875 118.335938 285.8125 118.335938 C 286.4375 118.335938 287.058594 118.277344 287.671875 118.15625 C 288.285156 118.03125 288.882812 117.855469 289.460938 117.617188 C 290.039062 117.378906 290.585938 117.085938 291.109375 116.742188 C 291.628906 116.394531 292.109375 116.003906 292.550781 115.566406 C 292.996094 115.125 293.390625 114.648438 293.738281 114.132812 C 294.085938 113.613281 294.378906 113.070312 294.617188 112.496094 C 294.859375 111.921875 295.039062 111.328125 295.160156 110.71875 C 295.285156 110.109375 295.34375 109.496094 295.34375 108.875 C 295.34375 108.253906 295.285156 107.636719 295.160156 107.027344 C 295.039062 106.417969 294.859375 105.828125 294.617188 105.253906 C 294.378906 104.679688 294.085938 104.132812 293.738281 103.617188 C 293.390625 103.101562 292.996094 102.625 292.550781 102.183594 C 292.109375 101.746094 291.628906 101.351562 291.109375 101.007812 C 290.585938 100.664062 290.039062 100.371094 289.460938 100.132812 C 288.882812 99.894531 288.285156 99.714844 287.671875 99.59375 C 287.058594 99.472656 286.4375 99.414062 285.8125 99.414062 Z M 285.8125 99.414062 "/>
<path style=" stroke:none;fill-rule:nonzero;fill:rgb(93.328857%,93.328857%,93.328857%);fill-opacity:1;" d="M 297.726562 132.527344 C 297.726562 133.835938 298.796875 134.894531 300.109375 134.894531 C 301.425781 134.894531 302.496094 133.835938 302.496094 132.527344 L 302.496094 125.433594 L 297.726562 125.433594 Z M 292.960938 132.527344 C 292.960938 133.835938 294.027344 134.894531 295.34375 134.894531 C 296.660156 134.894531 297.726562 133.835938 297.726562 132.527344 L 297.726562 125.433594 L 292.960938 125.433594 Z M 292.960938 132.527344 "/>
<path style=" stroke:none;fill-rule:nonzero;fill:rgb(100%,79.998779%,50.19989%);fill-opacity:1;" d="M 303.6875 127.796875 C 302.703125 127.796875 302.128906 127.597656 301.277344 127.3125 C 298.953125 126.535156 296.460938 126.542969 294.136719 127.316406 C 293.289062 127.597656 292.746094 127.796875 291.769531 127.796875 C 288.589844 127.796875 288.195312 125.433594 288.195312 124.25 C 288.195312 120.703125 291.769531 118.335938 295.34375 118.335938 C 297.335938 118.335938 298.121094 118.335938 300.109375 118.335938 C 303.6875 118.335938 307.261719 120.703125 307.261719 124.25 C 307.261719 125.433594 306.867188 127.796875 303.6875 127.796875 Z M 303.6875 127.796875 "/>
<path style=" stroke:none;fill-rule:nonzero;fill:rgb(25.878906%,25.878906%,25.878906%);fill-opacity:1;" d="M 304.878906 106.507812 C 304.5625 106.507812 304.257812 106.570312 303.964844 106.6875 C 303.671875 106.808594 303.414062 106.980469 303.191406 107.203125 C 302.96875 107.421875 302.796875 107.679688 302.675781 107.96875 C 302.554688 108.257812 302.496094 108.5625 302.496094 108.875 C 302.496094 109.1875 302.554688 109.488281 302.675781 109.78125 C 302.796875 110.070312 302.96875 110.324219 303.191406 110.546875 C 303.414062 110.769531 303.671875 110.941406 303.964844 111.058594 C 304.257812 111.179688 304.5625 111.238281 304.878906 111.238281 C 305.195312 111.238281 305.496094 111.179688 305.789062 111.058594 C 306.082031 110.941406 306.339844 110.769531 306.5625 110.546875 C 306.785156 110.324219 306.957031 110.070312 307.078125 109.78125 C 307.199219 109.488281 307.261719 109.1875 307.261719 108.875 C 307.261719 108.5625 307.199219 108.257812 307.078125 107.96875 C 306.957031 107.679688 306.785156 107.421875 306.5625 107.203125 C 306.339844 106.980469 306.082031 106.808594 305.789062 106.6875 C 305.496094 106.570312 305.195312 106.507812 304.878906 106.507812 Z M 281.046875 106.507812 C 280.730469 106.507812 280.425781 106.570312 280.132812 106.6875 C 279.839844 106.808594 279.582031 106.980469 279.359375 107.203125 C 279.136719 107.421875 278.964844 107.679688 278.84375 107.96875 C 278.722656 108.257812 278.664062 108.5625 278.664062 108.875 C 278.664062 109.1875 278.722656 109.488281 278.84375 109.78125 C 278.964844 110.070312 279.136719 110.324219 279.359375 110.546875 C 279.582031 110.769531 279.839844 110.941406 280.132812 111.058594 C 280.425781 111.179688 280.730469 111.238281 281.046875 111.238281 C 281.363281 111.238281 281.664062 111.179688 281.957031 111.058594 C 282.25 110.941406 282.507812 110.769531 282.730469 110.546875 C 282.953125 110.324219 283.125 110.070312 283.246094 109.78125 C 283.367188 109.488281 283.429688 109.1875 283.429688 108.875 C 283.429688 108.5625 283.367188 108.257812 283.246094 107.96875 C 283.125 107.679688 282.953125 107.421875 282.730469 107.203125 C 282.507812 106.980469 282.25 106.808594 281.957031 106.6875 C 281.664062 106.570312 281.363281 106.507812 281.046875 106.507812 Z M 297.726562 115.972656 C 297.097656 115.972656 296.488281 116.03125 295.902344 116.152344 C 295.320312 116.269531 294.804688 116.441406 294.359375 116.664062 C 293.910156 116.886719 293.566406 117.140625 293.324219 117.429688 C 293.082031 117.722656 292.960938 118.023438 292.960938 118.335938 C 292.960938 118.648438 293.082031 118.953125 293.324219 119.242188 C 293.566406 119.53125 293.910156 119.785156 294.359375 120.007812 C 294.804688 120.230469 295.320312 120.402344 295.902344 120.523438 C 296.488281 120.640625 297.097656 120.703125 297.726562 120.703125 C 298.359375 120.703125 298.96875 120.640625 299.550781 120.523438 C 300.136719 120.402344 300.652344 120.230469 301.097656 120.007812 C 301.546875 119.785156 301.890625 119.53125 302.132812 119.242188 C 302.375 118.953125 302.496094 118.648438 302.496094 118.335938 C 302.496094 118.023438 302.375 117.722656 302.132812 117.429688 C 301.890625 117.140625 301.546875 116.886719 301.097656 116.664062 C 300.652344 116.441406 300.136719 116.269531 299.550781 116.152344 C 298.96875 116.03125 298.359375 115.972656 297.726562 115.972656 Z M 297.726562 115.972656 "/>
<g clip-path="url(#clip3)" clip-rule="nonzero">
<path style=" stroke:none;fill-rule:nonzero;fill:rgb(100%,83.918762%,0%);fill-opacity:1;" d="M 132.371094 202.148438 L 231.453125 202.148438 L 231.453125 301.230469 L 132.371094 301.230469 Z M 132.371094 202.148438 "/>
</g>
<path style=" stroke:none;fill-rule:nonzero;fill:rgb(0%,0%,0.389099%);fill-opacity:1;" d="M 197.152344 276.3125 C 199.058594 279.40625 201.125 282.371094 205.511719 282.371094 C 209.195312 282.371094 211.125 280.539062 211.125 278.007812 C 211.125 274.976562 209.128906 273.902344 205.078125 272.136719 L 202.855469 271.191406 C 196.445312 268.472656 192.183594 265.0625 192.183594 257.867188 C 192.183594 251.234375 197.257812 246.1875 205.195312 246.1875 C 210.84375 246.1875 214.90625 248.144531 217.832031 253.269531 L 210.914062 257.691406 C 209.390625 254.972656 207.746094 253.902344 205.195312 253.902344 C 202.589844 253.902344 200.941406 255.542969 200.941406 257.691406 C 200.941406 260.34375 202.59375 261.417969 206.40625 263.0625 L 208.625 264.007812 C 216.183594 267.226562 220.441406 270.511719 220.441406 277.898438 C 220.441406 285.859375 214.15625 290.21875 205.71875 290.21875 C 197.464844 290.21875 192.777344 286.078125 190.167969 280.949219 Z M 165.265625 276.539062 C 166.65625 279.03125 168.773438 280.949219 171.816406 280.949219 C 174.730469 280.949219 176.40625 279.800781 176.40625 275.328125 L 176.40625 246.183594 L 185.578125 246.183594 L 185.578125 276.738281 C 185.578125 286.003906 180.203125 290.21875 172.355469 290.21875 C 165.261719 290.21875 160.140625 285.414062 158.054688 280.949219 Z M 165.265625 276.539062 "/>
<g clip-path="url(#clip4)" clip-rule="nonzero">
<path style=" stroke:none;fill-rule:evenodd;fill:rgb(0%,32.939148%,61.569214%);fill-opacity:1;" d="M 307.671875 193.476562 C 309.414062 192.496094 311.558594 192.496094 313.300781 193.476562 C 321.90625 198.324219 347.804688 212.914062 356.414062 217.761719 C 358.15625 218.738281 359.230469 220.550781 359.230469 222.511719 C 359.230469 232.207031 359.230469 261.382812 359.230469 271.074219 C 359.230469 273.035156 358.15625 274.847656 356.414062 275.828125 C 347.808594 280.675781 321.910156 295.265625 313.300781 300.113281 C 311.558594 301.09375 309.414062 301.09375 307.671875 300.113281 C 299.066406 295.265625 273.167969 280.675781 264.558594 275.828125 C 262.816406 274.847656 261.746094 273.039062 261.746094 271.078125 C 261.746094 261.382812 261.746094 232.207031 261.746094 222.515625 C 261.746094 220.554688 262.816406 218.742188 264.558594 217.761719 C 273.164062 212.914062 299.070312 198.324219 307.671875 193.476562 Z M 307.671875 193.476562 "/>
</g>
<g clip-path="url(#clip5)" clip-rule="nonzero">
<path style=" stroke:none;fill-rule:evenodd;fill:rgb(0%,52.549744%,83.139038%);fill-opacity:1;" d="M 262.527344 273.574219 C 261.84375 272.660156 261.746094 271.789062 261.746094 270.617188 C 261.746094 260.980469 261.746094 231.972656 261.746094 222.332031 C 261.746094 220.382812 262.816406 218.578125 264.550781 217.605469 C 273.128906 212.789062 298.941406 198.285156 307.515625 193.460938 C 309.253906 192.488281 311.605469 192.507812 313.34375 193.484375 C 321.917969 198.300781 347.644531 212.683594 356.21875 217.5 C 356.914062 217.890625 357.441406 218.363281 357.914062 218.984375 Z M 262.527344 273.574219 "/>
</g>
<path style=" stroke:none;fill-rule:evenodd;fill:rgb(100%,100%,100%);fill-opacity:1;" d="M 310.488281 210.761719 C 330.308594 210.761719 346.402344 226.90625 346.402344 246.796875 C 346.402344 266.683594 330.308594 282.832031 310.488281 282.832031 C 290.664062 282.832031 274.574219 266.683594 274.574219 246.796875 C 274.574219 226.90625 290.664062 210.761719 310.488281 210.761719 Z M 310.488281 228.777344 C 320.398438 228.777344 328.445312 236.847656 328.445312 246.796875 C 328.445312 256.738281 320.398438 264.8125 310.488281 264.8125 C 300.578125 264.8125 292.53125 256.738281 292.53125 246.796875 C 292.53125 236.847656 300.574219 228.777344 310.488281 228.777344 Z M 310.488281 228.777344 "/>
<g clip-path="url(#clip6)" clip-rule="nonzero">
<path style=" stroke:none;fill-rule:evenodd;fill:rgb(0%,45.878601%,75.289917%);fill-opacity:1;" d="M 357.910156 219.007812 C 359.230469 220.253906 359.207031 222.125 359.207031 223.601562 C 359.207031 233.371094 359.125 261.152344 359.230469 270.921875 C 359.238281 271.941406 358.902344 273.011719 358.402344 273.820312 L 309.445312 246.796875 Z M 357.910156 219.007812 "/>
</g>
<path style=" stroke:none;fill-rule:evenodd;fill:rgb(100%,100%,100%);fill-opacity:1;" d="M 328.445312 239.074219 L 333.574219 239.074219 L 333.574219 254.515625 L 328.445312 254.515625 Z M 346.402344 239.074219 L 351.535156 239.074219 L 351.535156 254.515625 L 346.402344 254.515625 Z M 346.402344 239.074219 "/>
<path style=" stroke:none;fill-rule:evenodd;fill:rgb(100%,100%,100%);fill-opacity:1;" d="M 323.316406 244.222656 L 338.707031 244.222656 L 338.707031 249.371094 L 323.316406 249.371094 Z M 341.273438 244.222656 L 356.664062 244.222656 L 356.664062 249.371094 L 341.273438 249.371094 Z M 341.273438 244.222656 "/>
<path style=" stroke:none;fill-rule:nonzero;fill:rgb(60.778809%,6.269836%,6.269836%);fill-opacity:1;" d="M 243.015625 111.109375 L 236.828125 191.523438 L 156.417969 197.707031 Z M 243.015625 111.109375 "/>
<path style=" stroke:none;fill-rule:nonzero;fill:rgb(71.759033%,10.978699%,10.978699%);fill-opacity:1;" d="M 199.714844 154.410156 L 236.828125 191.523438 L 243.015625 111.109375 Z M 199.714844 154.410156 "/>
<path style=" stroke:none;fill-rule:nonzero;fill:rgb(77.648926%,15.689087%,15.689087%);fill-opacity:1;" d="M 236.816406 92.566406 C 237.652344 93.402344 238.40625 94.3125 239.078125 95.304688 C 239.75 96.292969 240.335938 97.359375 240.839844 98.492188 C 241.34375 99.628906 241.761719 100.832031 242.089844 102.101562 C 242.417969 103.371094 242.660156 104.703125 242.8125 106.09375 C 242.964844 107.484375 243.023438 108.929688 243 110.433594 C 242.972656 111.933594 242.855469 113.480469 242.648438 115.074219 C 242.445312 116.667969 242.152344 118.304688 241.769531 119.976562 C 241.386719 121.652344 240.917969 123.355469 240.363281 125.09375 C 239.808594 126.828125 239.167969 128.589844 238.445312 130.371094 C 237.726562 132.152344 236.921875 133.949219 236.039062 135.761719 C 235.15625 137.574219 234.195312 139.390625 233.160156 141.210938 C 232.125 143.035156 231.019531 144.855469 229.84375 146.671875 C 228.667969 148.488281 227.425781 150.292969 226.117188 152.085938 C 224.808594 153.878906 223.441406 155.652344 222.015625 157.402344 C 220.589844 159.15625 219.109375 160.878906 217.582031 162.574219 C 216.050781 164.269531 214.472656 165.925781 212.855469 167.546875 C 211.234375 169.164062 209.578125 170.742188 207.882812 172.273438 C 206.1875 173.800781 204.464844 175.28125 202.714844 176.707031 C 200.960938 178.132812 199.1875 179.5 197.394531 180.808594 C 195.601562 182.117188 193.796875 183.359375 191.980469 184.535156 C 190.164062 185.710938 188.34375 186.820312 186.523438 187.855469 C 184.699219 188.890625 182.882812 189.847656 181.070312 190.730469 C 179.261719 191.613281 177.464844 192.417969 175.679688 193.140625 C 173.898438 193.863281 172.140625 194.5 170.402344 195.054688 C 168.667969 195.609375 166.960938 196.078125 165.289062 196.460938 C 163.613281 196.84375 161.980469 197.136719 160.382812 197.34375 C 158.789062 197.546875 157.242188 197.664062 155.742188 197.691406 C 154.242188 197.71875 152.796875 197.65625 151.402344 197.503906 C 150.011719 197.351562 148.679688 197.113281 147.410156 196.78125 C 146.140625 196.453125 144.9375 196.039062 143.804688 195.535156 C 142.667969 195.03125 141.605469 194.445312 140.613281 193.769531 C 139.625 193.097656 138.710938 192.34375 137.875 191.507812 C 137.039062 190.671875 136.285156 189.761719 135.613281 188.769531 C 134.941406 187.78125 134.351562 186.71875 133.851562 185.582031 C 133.347656 184.445312 132.929688 183.242188 132.601562 181.972656 C 132.273438 180.703125 132.03125 179.375 131.878906 177.980469 C 131.726562 176.589844 131.664062 175.144531 131.691406 173.644531 C 131.71875 172.140625 131.835938 170.59375 132.039062 169 C 132.246094 167.40625 132.539062 165.769531 132.921875 164.097656 C 133.304688 162.421875 133.773438 160.71875 134.328125 158.980469 C 134.882812 157.246094 135.519531 155.488281 136.242188 153.703125 C 136.964844 151.921875 137.769531 150.125 138.652344 148.3125 C 139.535156 146.5 140.492188 144.683594 141.527344 142.863281 C 142.5625 141.039062 143.671875 139.21875 144.847656 137.402344 C 146.023438 135.585938 147.265625 133.78125 148.574219 131.988281 C 149.882812 130.195312 151.25 128.421875 152.675781 126.671875 C 154.101562 124.917969 155.578125 123.195312 157.109375 121.5 C 158.640625 119.808594 160.214844 118.148438 161.835938 116.53125 C 163.457031 114.910156 165.113281 113.332031 166.808594 111.804688 C 168.503906 110.273438 170.226562 108.792969 171.976562 107.367188 C 173.730469 105.941406 175.503906 104.574219 177.296875 103.265625 C 179.089844 101.960938 180.894531 100.714844 182.710938 99.539062 C 184.527344 98.363281 186.347656 97.257812 188.167969 96.222656 C 189.992188 95.1875 191.808594 94.226562 193.621094 93.34375 C 195.429688 92.460938 197.226562 91.65625 199.011719 90.933594 C 200.792969 90.210938 202.550781 89.574219 204.289062 89.019531 C 206.023438 88.464844 207.730469 87.996094 209.402344 87.613281 C 211.078125 87.230469 212.710938 86.9375 214.304688 86.730469 C 215.902344 86.527344 217.449219 86.410156 218.949219 86.382812 C 220.449219 86.355469 221.894531 86.417969 223.289062 86.570312 C 224.679688 86.722656 226.011719 86.960938 227.28125 87.292969 C 228.550781 87.621094 229.753906 88.035156 230.886719 88.539062 C 232.023438 89.042969 233.085938 89.632812 234.078125 90.304688 C 235.066406 90.976562 235.980469 91.730469 236.816406 92.566406 Z M 236.816406 92.566406 "/>
<path style=" stroke:none;fill-rule:nonzero;fill:rgb(89.7995%,22.349548%,20.779419%);fill-opacity:1;" d="M 144.046875 120.386719 L 165.695312 98.738281 L 190.4375 86.367188 L 208.996094 98.738281 L 199.714844 126.574219 L 171.882812 151.316406 L 144.046875 160.59375 L 131.675781 142.039062 Z M 144.046875 120.386719 "/>
<path style=" stroke:none;fill-rule:nonzero;fill:rgb(100%,32.159424%,32.159424%);fill-opacity:1;" d="M 208.996094 98.738281 L 190.4375 86.367188 L 224.457031 86.367188 Z M 243.015625 114.203125 L 208.996094 98.738281 L 199.714844 126.574219 Z M 171.882812 151.316406 L 212.8125 167.507812 L 199.714844 126.574219 Z M 144.046875 160.59375 L 156.417969 197.707031 L 171.882812 151.316406 Z M 131.675781 142.039062 L 131.675781 176.058594 L 144.046875 160.59375 Z M 131.675781 142.039062 "/>
<path style=" stroke:none;fill-rule:nonzero;fill:rgb(30.589294%,47.059631%,58.81958%);fill-opacity:1;" d="M 53.953125 191.875 C 53.953125 191.875 50.167969 194.183594 56.589844 194.84375 C 64.324219 195.832031 68.441406 195.667969 77 194.019531 C 77 194.019531 79.304688 195.503906 82.433594 196.65625 C 63.171875 204.90625 38.808594 196.164062 53.953125 191.875 Z M 51.484375 181.152344 C 51.484375 181.152344 47.367188 184.285156 53.789062 184.945312 C 62.183594 185.773438 68.769531 185.9375 80.128906 183.625 C 80.128906 183.625 81.609375 185.277344 84.082031 186.101562 C 60.867188 193.027344 34.855469 186.761719 51.484375 181.152344 Z M 96.921875 199.953125 C 96.921875 199.953125 99.71875 202.265625 93.792969 204.078125 C 82.765625 207.378906 47.535156 208.367188 37.65625 204.078125 C 34.199219 202.59375 40.785156 200.449219 42.925781 200.121094 C 45.0625 199.625 46.214844 199.625 46.214844 199.625 C 42.429688 196.984375 21.027344 205.066406 35.351562 207.378906 C 74.695312 213.808594 107.128906 204.574219 96.921875 199.953125 Z M 55.765625 169.933594 C 55.765625 169.933594 37.820312 174.222656 49.347656 175.707031 C 54.285156 176.367188 63.996094 176.203125 73.050781 175.542969 C 80.460938 174.882812 87.867188 173.5625 87.867188 173.5625 C 87.867188 173.5625 85.234375 174.71875 83.421875 175.871094 C 65.148438 180.65625 30.085938 178.511719 40.125 173.5625 C 48.6875 169.4375 55.765625 169.933594 55.765625 169.933594 Z M 87.867188 187.914062 C 106.304688 178.347656 97.746094 169.109375 91.820312 170.265625 C 90.335938 170.59375 89.679688 170.925781 89.679688 170.925781 C 89.679688 170.925781 90.171875 169.933594 91.324219 169.605469 C 103.011719 165.480469 112.230469 181.976562 87.539062 188.40625 C 87.539062 188.40625 87.703125 188.242188 87.867188 187.914062 Z M 57.578125 213.976562 C 75.355469 215.128906 102.515625 213.316406 103.179688 204.902344 C 103.179688 204.902344 101.863281 208.203125 88.527344 210.675781 C 73.382812 213.480469 54.613281 213.148438 43.585938 211.335938 C 43.585938 211.335938 45.890625 213.316406 57.582031 213.976562 Z M 57.578125 213.976562 "/>
<g clip-path="url(#clip7)" clip-rule="nonzero">
<path style=" stroke:none;fill-rule:nonzero;fill:rgb(96.078491%,50.979614%,9.799194%);fill-opacity:1;" d="M 76.671875 115.503906 C 76.671875 115.503906 86.878906 125.894531 66.957031 141.5625 C 50.992188 154.265625 63.335938 161.523438 66.957031 169.769531 C 57.574219 161.355469 50.824219 153.933594 55.433594 147.007812 C 62.1875 136.78125 80.789062 131.835938 76.671875 115.503906 Z M 71.40625 162.84375 C 76.179688 168.285156 70.089844 173.234375 70.089844 173.234375 C 70.089844 173.234375 82.273438 166.964844 76.675781 159.214844 C 71.570312 151.792969 67.621094 148.164062 89.019531 135.792969 C 89.019531 135.792969 55.273438 144.207031 71.40625 162.847656 Z M 59.222656 251.417969 L 59.222656 235.253906 C 59.222656 231.128906 56.917969 228.324219 51.15625 228.324219 C 47.863281 228.324219 45.066406 229.148438 42.59375 230.136719 L 43.417969 233.105469 C 45.226562 232.445312 47.535156 231.785156 50.003906 231.785156 C 53.132812 231.785156 54.613281 233.105469 54.613281 235.742188 L 54.613281 237.886719 L 52.96875 237.886719 C 45.066406 237.886719 41.441406 240.855469 41.441406 245.640625 C 41.441406 249.597656 43.914062 251.910156 48.359375 251.910156 C 51.15625 251.910156 53.296875 250.589844 55.273438 248.9375 L 55.601562 251.414062 L 59.222656 251.414062 Z M 54.613281 246.140625 C 52.964844 247.625 51.15625 248.449219 49.507812 248.449219 C 47.367188 248.449219 46.050781 247.128906 46.050781 244.820312 C 46.050781 242.511719 47.371094 240.859375 52.636719 240.859375 L 54.613281 240.859375 Z M 74.699219 251.417969 L 68.9375 251.417969 L 62.023438 228.820312 L 66.960938 228.820312 L 71.242188 242.675781 L 72.230469 246.796875 C 74.367188 240.859375 76.015625 234.757812 76.671875 228.820312 L 81.613281 228.820312 C 80.296875 236.242188 77.992188 244.324219 74.699219 251.417969 Z M 101.367188 251.417969 L 101.367188 235.253906 C 101.367188 231.128906 99.0625 228.324219 93.300781 228.324219 C 90.007812 228.324219 87.207031 229.148438 84.738281 230.136719 L 85.398438 233.105469 C 87.375 232.445312 89.679688 231.785156 92.148438 231.785156 C 95.277344 231.785156 96.757812 233.105469 96.757812 235.742188 L 96.757812 237.886719 L 95.109375 237.886719 C 87.207031 237.886719 83.585938 240.855469 83.585938 245.640625 C 83.585938 249.597656 85.890625 251.910156 90.335938 251.910156 C 93.300781 251.910156 95.441406 250.589844 97.414062 248.9375 L 97.746094 251.414062 L 101.367188 251.414062 Z M 96.757812 246.140625 C 95.109375 247.625 93.300781 248.449219 91.652344 248.449219 C 89.511719 248.449219 88.195312 247.128906 88.195312 244.820312 C 88.195312 242.511719 89.511719 240.859375 94.78125 240.859375 L 96.757812 240.859375 Z M 36.339844 255.210938 C 35.023438 257.191406 33.046875 258.675781 30.578125 259.5 L 28.4375 256.863281 C 30.082031 255.871094 31.730469 254.386719 32.386719 253.066406 C 33.046875 251.914062 33.210938 250.265625 33.210938 246.46875 L 33.210938 220.738281 L 38.152344 220.738281 L 38.152344 246.140625 C 38.152344 251.253906 37.65625 253.234375 36.34375 255.214844 Z M 36.339844 255.210938 "/>
</g>
</g>
</svg>
