<?xml version="1.0" encoding="UTF-8"?>
<svg xmlns="http://www.w3.org/2000/svg" xmlns:xlink="http://www.w3.org/1999/xlink" width="375pt" height="374.999991pt" viewBox="0 0 375 374.999991" version="1.2">
<defs>
<clipPath id="clip1">
  <path d="M 24.84375 200 L 351.09375 200 L 351.09375 373 L 24.84375 373 Z M 24.84375 200 "/>
</clipPath>
<clipPath id="clip2">
  <path d="M 97 356 L 142 356 L 142 374.46875 L 97 374.46875 Z M 97 356 "/>
</clipPath>
<clipPath id="clip3">
  <path d="M 234 356 L 279 356 L 279 374.46875 L 234 374.46875 Z M 234 356 "/>
</clipPath>
<clipPath id="clip4">
  <path d="M 24.84375 201.96875 L 351.09375 201.96875 L 351.09375 373 L 24.84375 373 Z M 24.84375 201.96875 "/>
</clipPath>
</defs>
<g id="surface1">
<path style=" stroke:none;fill-rule:nonzero;fill:rgb(14.509583%,76.078796%,62.748718%);fill-opacity:1;" d="M 69.136719 152.207031 C 63.300781 133.011719 78.644531 137.003906 82.808594 138.550781 C 89.75 141.640625 100.636719 136.617188 103.21875 131.980469 C 87.714844 137.585938 85.101562 132.496094 78.851562 129.019531 C 71.914062 125.160156 58.378906 126.703125 57.335938 137.910156 C 56.988281 143.703125 59.933594 147.375 69.136719 152.207031 Z M 69.136719 152.207031 "/>
<path style=" stroke:none;fill-rule:nonzero;fill:rgb(14.509583%,76.078796%,62.748718%);fill-opacity:1;" d="M 60.746094 180.664062 C 60.167969 181.3125 59.808594 182.15625 59.808594 183.089844 C 59.808594 185.113281 61.457031 186.757812 63.488281 186.757812 L 82.808594 186.757812 C 84.839844 186.757812 86.488281 185.113281 86.488281 183.089844 C 86.488281 182.15625 86.128906 181.3125 85.550781 180.664062 C 88.648438 178.652344 91.101562 175.597656 93.019531 172.3125 C 94.730469 173.253906 96.691406 173.792969 98.777344 173.792969 C 105.375 173.792969 110.738281 168.441406 110.738281 161.867188 C 110.738281 157.425781 104.296875 155.851562 98.777344 155.851562 C 98.410156 155.851562 98.035156 155.859375 97.660156 155.875 L 47.265625 155.875 C 47.265625 155.875 50.480469 174 60.746094 180.664062 Z M 107.058594 161.867188 C 107.058594 166.417969 103.34375 170.121094 98.777344 170.121094 C 97.308594 170.121094 95.941406 169.707031 94.742188 169.03125 C 96.398438 165.507812 97.503906 162.039062 98.175781 159.542969 C 98.382812 159.539062 98.566406 159.519531 98.777344 159.519531 C 101.183594 159.519531 103.488281 159.859375 105.101562 160.453125 C 106.445312 160.945312 107.058594 161.53125 107.058594 161.867188 Z M 107.058594 161.867188 "/>
<path style=" stroke:none;fill-rule:nonzero;fill:rgb(14.509583%,76.078796%,62.748718%);fill-opacity:1;" d="M 237.757812 121.328125 L 237.757812 115.964844 L 294.269531 64.027344 C 298.265625 60.351562 299.90625 54.773438 298.535156 49.53125 C 297.164062 44.28125 293 40.214844 287.710938 38.957031 L 230.394531 25.308594 C 232.46875 30.507812 233.625 36.167969 233.625 42.09375 C 233.625 46.851562 232.886719 51.441406 231.519531 55.761719 L 253.996094 61.113281 L 218.398438 93.832031 L 157.582031 93.832031 L 121.988281 61.109375 L 144.464844 55.757812 C 143.101562 51.441406 142.359375 46.851562 142.359375 42.089844 C 142.359375 36.164062 143.511719 30.503906 145.589844 25.308594 L 88.273438 38.957031 C 82.984375 40.214844 78.820312 44.28125 77.449219 49.527344 C 76.074219 54.773438 77.71875 60.347656 81.714844 64.023438 L 138.222656 115.960938 L 138.222656 121.328125 Z M 237.757812 121.328125 "/>
<path style=" stroke:none;fill-rule:nonzero;fill:rgb(14.509583%,76.078796%,62.748718%);fill-opacity:1;" d="M 146.589844 42.089844 C 146.589844 64.890625 165.125 83.375 187.992188 83.375 C 210.859375 83.375 229.394531 64.890625 229.394531 42.089844 C 229.394531 19.289062 210.859375 0.808594 187.992188 0.808594 C 165.128906 0.808594 146.589844 19.289062 146.589844 42.089844 Z M 187.992188 68.546875 C 177.078125 68.546875 167.519531 62.753906 162.167969 54.109375 L 213.820312 54.109375 C 208.464844 62.757812 198.90625 68.546875 187.992188 68.546875 Z M 187.992188 68.546875 "/>
<path style=" stroke:none;fill-rule:nonzero;fill:rgb(14.509583%,76.078796%,62.748718%);fill-opacity:1;" d="M 117.003906 374.113281 C 117.90625 374.21875 118.796875 374.269531 119.683594 374.269531 C 130.417969 374.269531 139.746094 366.628906 141.777344 356.015625 L 97.515625 356.015625 C 99.3125 365.386719 107 372.933594 117.003906 374.113281 Z M 117.003906 374.113281 "/>
<path style=" stroke:none;fill-rule:nonzero;fill:rgb(14.509583%,76.078796%,62.748718%);fill-opacity:1;" d="M 256.300781 374.269531 C 257.183594 374.269531 258.082031 374.21875 258.980469 374.113281 C 268.984375 372.933594 276.671875 365.386719 278.46875 356.015625 L 234.207031 356.015625 C 236.238281 366.628906 245.5625 374.269531 256.300781 374.269531 Z M 256.300781 374.269531 "/>
<g clip-path="url(#clip1)" clip-rule="nonzero">
<path style=" stroke:none;fill-rule:nonzero;fill:rgb(14.509583%,76.078796%,62.748718%);fill-opacity:1;" d="M 24.84375 200.132812 L 24.84375 209.308594 L 38.335938 209.308594 L 38.335938 225.515625 L 48.304688 225.515625 L 48.304688 372.84375 L 60.265625 372.84375 L 60.265625 350.511719 L 315.71875 350.511719 L 315.71875 372.84375 L 327.679688 372.84375 L 327.679688 225.515625 L 337.644531 225.515625 L 337.644531 209.308594 L 351.140625 209.308594 L 351.140625 200.132812 Z M 24.84375 200.132812 "/>
</g>
<path style=" stroke:none;fill-rule:nonzero;fill:rgb(14.509583%,76.078796%,62.748718%);fill-opacity:1;" d="M 253.429688 196.523438 L 253.429688 189.125 L 241.96875 189.125 L 241.96875 126.832031 L 134.015625 126.832031 L 134.015625 189.125 L 122.554688 189.125 L 122.554688 196.523438 Z M 187.992188 157.074219 C 190.535156 157.074219 192.59375 159.125 192.59375 161.660156 C 192.59375 164.195312 190.535156 166.246094 187.992188 166.246094 C 185.453125 166.246094 183.390625 164.195312 183.390625 161.660156 C 183.390625 159.125 185.453125 157.074219 187.992188 157.074219 Z M 187.992188 157.074219 "/>
<path style=" stroke:none;fill-rule:nonzero;fill:rgb(14.509583%,76.078796%,62.748718%);fill-opacity:1;" d="M 52.519531 189.160156 L 91.621094 189.160156 L 91.621094 193.289062 L 52.519531 193.289062 Z M 52.519531 189.160156 "/>
<path style=" stroke:none;fill-rule:nonzero;fill:rgb(14.509583%,76.078796%,62.748718%);fill-opacity:1;" d="M 269.425781 186.242188 L 336.367188 186.242188 L 336.367188 190.246094 L 269.425781 190.246094 Z M 269.425781 186.242188 "/>
<path style=" stroke:none;fill-rule:nonzero;fill:rgb(14.509583%,76.078796%,62.748718%);fill-opacity:1;" d="M 275.800781 177.402344 L 342.742188 177.402344 L 342.742188 181.410156 L 275.800781 181.410156 Z M 275.800781 177.402344 "/>
<path style=" stroke:none;fill-rule:nonzero;fill:rgb(14.509583%,76.078796%,62.748718%);fill-opacity:1;" d="M 269.425781 168.566406 L 336.367188 168.566406 L 336.367188 172.570312 L 269.425781 172.570312 Z M 269.425781 168.566406 "/>
<path style=" stroke:none;fill-rule:nonzero;fill:rgb(14.509583%,76.078796%,62.748718%);fill-opacity:1;" d="M 275.800781 159.726562 L 342.742188 159.726562 L 342.742188 163.730469 L 275.800781 163.730469 Z M 275.800781 159.726562 "/>
<g clip-path="url(#clip2)" clip-rule="nonzero">
<path style=" stroke:none;fill-rule:nonzero;fill:rgb(100%,32.548523%,5.099487%);fill-opacity:1;" d="M 117.003906 374.113281 C 117.90625 374.21875 118.796875 374.269531 119.683594 374.269531 C 130.417969 374.269531 139.746094 366.628906 141.777344 356.015625 L 97.515625 356.015625 C 99.3125 365.386719 107 372.933594 117.003906 374.113281 Z M 117.003906 374.113281 "/>
</g>
<g clip-path="url(#clip3)" clip-rule="nonzero">
<path style=" stroke:none;fill-rule:nonzero;fill:rgb(100%,32.548523%,5.099487%);fill-opacity:1;" d="M 256.300781 374.269531 C 257.183594 374.269531 258.082031 374.21875 258.980469 374.113281 C 268.984375 372.933594 276.671875 365.386719 278.46875 356.015625 L 234.207031 356.015625 C 236.238281 366.628906 245.5625 374.269531 256.300781 374.269531 Z M 256.300781 374.269531 "/>
</g>
<g clip-path="url(#clip4)" clip-rule="nonzero">
<path style=" stroke:none;fill-rule:nonzero;fill:rgb(100%,32.548523%,5.099487%);fill-opacity:1;" d="M 24.84375 200.132812 L 24.84375 209.308594 L 38.335938 209.308594 L 38.335938 225.515625 L 48.304688 225.515625 L 48.304688 372.84375 L 60.265625 372.84375 L 60.265625 350.511719 L 315.71875 350.511719 L 315.71875 372.84375 L 327.679688 372.84375 L 327.679688 225.515625 L 337.644531 225.515625 L 337.644531 209.308594 L 351.140625 209.308594 L 351.140625 200.132812 Z M 24.84375 200.132812 "/>
</g>
</g>
</svg>
