<?xml version="1.0" encoding="UTF-8"?>
<svg xmlns="http://www.w3.org/2000/svg" xmlns:xlink="http://www.w3.org/1999/xlink" width="375pt" height="374.999991pt" viewBox="0 0 375 374.999991" version="1.2">
<defs>
<clipPath id="clip1">
  <path d="M 87 7.5 L 368 7.5 L 368 184 L 87 184 Z M 87 7.5 "/>
</clipPath>
<clipPath id="clip2">
  <path d="M 7 95 L 288 95 L 288 367.5 L 7 367.5 Z M 7 95 "/>
</clipPath>
</defs>
<g id="surface1">
<g clip-path="url(#clip1)" clip-rule="nonzero">
<path style=" stroke:none;fill-rule:nonzero;fill:rgb(100%,32.548523%,5.099487%);fill-opacity:1;" d="M 319.46875 135.496094 C 307.15625 135.496094 295.949219 130.859375 287.476562 123.179688 L 287.476562 183.496094 L 218.054688 183.496094 C 231.015625 174.855469 239.488281 160.289062 239.488281 143.488281 C 239.488281 116.925781 218.054688 95.488281 191.503906 95.488281 C 164.953125 95.488281 143.519531 116.925781 143.519531 143.488281 C 143.519531 160.289062 151.996094 174.855469 164.953125 183.496094 L 87.523438 183.496094 L 87.523438 23.503906 C 87.523438 14.699219 94.726562 7.5 103.515625 7.5 L 271.484375 7.5 C 280.289062 7.5 287.476562 14.699219 287.476562 23.503906 L 287.476562 51.824219 C 298.351562 42.058594 313.546875 37.261719 329.863281 40.621094 C 348.253906 44.460938 363.300781 59.820312 366.660156 78.375 C 372.253906 108.945312 349.066406 135.496094 319.46875 135.496094 Z M 319.46875 135.496094 "/>
</g>
<g clip-path="url(#clip2)" clip-rule="nonzero">
<path style=" stroke:none;fill-rule:nonzero;fill:rgb(14.509583%,76.078796%,62.748718%);fill-opacity:1;" d="M 208.289062 262.378906 C 202.695312 292.933594 225.886719 319.5 255.480469 319.5 C 267.796875 319.5 279 314.863281 287.476562 307.183594 L 287.476562 351.511719 C 287.476562 360.316406 280.273438 367.515625 271.484375 367.515625 L 103.515625 367.515625 C 94.710938 367.515625 87.523438 360.316406 87.523438 351.511719 L 87.523438 307.183594 C 76.648438 316.949219 61.453125 321.75 45.136719 318.390625 C 26.746094 314.550781 11.699219 299.191406 8.339844 280.636719 C 2.746094 250.066406 25.933594 223.5 55.53125 223.5 C 67.84375 223.5 79.050781 228.136719 87.523438 235.816406 L 87.523438 183.496094 L 164.953125 183.496094 C 151.996094 174.855469 143.519531 160.289062 143.519531 143.488281 C 143.519531 116.925781 164.953125 95.488281 191.503906 95.488281 C 218.054688 95.488281 239.488281 116.925781 239.488281 143.488281 C 239.488281 160.289062 231.015625 174.855469 218.054688 183.496094 L 287.476562 183.496094 L 287.476562 235.816406 C 276.601562 226.050781 261.40625 221.25 245.085938 224.609375 C 226.695312 228.464844 211.648438 243.824219 208.289062 262.378906 Z M 208.289062 262.378906 "/>
</g>
</g>
</svg>
